<mxfile host="app.diagrams.net" modified="2020-11-21T16:27:47.770Z" agent="5.0 (Windows NT 10.0; Win64; x64) AppleWebKit/537.36 (KHTML, like Gecko) Chrome/87.0.4280.66 Safari/537.36" etag="y0AnmOA_D53N5qS8ea2m" version="13.9.9" type="github">
  <diagram id="kAck30q0n1SWu0mY80vo" name="Page-1">
    <mxGraphModel dx="1422" dy="832" grid="1" gridSize="10" guides="1" tooltips="1" connect="1" arrows="1" fold="1" page="1" pageScale="1" pageWidth="2000" pageHeight="2000" math="0" shadow="0">
      <root>
        <mxCell id="0" />
        <mxCell id="1" parent="0" />
        <mxCell id="pvdILLQp2z0XS6JpvBbr-3" value="" style="edgeStyle=orthogonalEdgeStyle;rounded=0;orthogonalLoop=1;jettySize=auto;html=1;" edge="1" parent="1" source="pvdILLQp2z0XS6JpvBbr-1" target="pvdILLQp2z0XS6JpvBbr-2">
          <mxGeometry relative="1" as="geometry" />
        </mxCell>
        <mxCell id="pvdILLQp2z0XS6JpvBbr-1" value="Початок" style="ellipse;whiteSpace=wrap;html=1;" vertex="1" parent="1">
          <mxGeometry x="590" y="20" width="120" height="80" as="geometry" />
        </mxCell>
        <mxCell id="pvdILLQp2z0XS6JpvBbr-5" value="" style="edgeStyle=orthogonalEdgeStyle;rounded=0;orthogonalLoop=1;jettySize=auto;html=1;" edge="1" parent="1" source="pvdILLQp2z0XS6JpvBbr-2" target="pvdILLQp2z0XS6JpvBbr-4">
          <mxGeometry relative="1" as="geometry" />
        </mxCell>
        <mxCell id="pvdILLQp2z0XS6JpvBbr-2" value="Ввід тексту" style="shape=parallelogram;perimeter=parallelogramPerimeter;whiteSpace=wrap;html=1;fixedSize=1;" vertex="1" parent="1">
          <mxGeometry x="590" y="130" width="120" height="60" as="geometry" />
        </mxCell>
        <mxCell id="pvdILLQp2z0XS6JpvBbr-8" value="" style="edgeStyle=orthogonalEdgeStyle;rounded=0;orthogonalLoop=1;jettySize=auto;html=1;" edge="1" parent="1" source="pvdILLQp2z0XS6JpvBbr-4" target="pvdILLQp2z0XS6JpvBbr-7">
          <mxGeometry relative="1" as="geometry" />
        </mxCell>
        <mxCell id="pvdILLQp2z0XS6JpvBbr-4" value="Оприділити&lt;br&gt;кількість&amp;nbsp;&lt;br&gt;написанного &lt;br&gt;тексту&amp;nbsp;" style="whiteSpace=wrap;html=1;" vertex="1" parent="1">
          <mxGeometry x="590" y="220" width="120" height="80" as="geometry" />
        </mxCell>
        <mxCell id="pvdILLQp2z0XS6JpvBbr-10" value="" style="edgeStyle=orthogonalEdgeStyle;rounded=0;orthogonalLoop=1;jettySize=auto;html=1;" edge="1" parent="1" source="pvdILLQp2z0XS6JpvBbr-7" target="pvdILLQp2z0XS6JpvBbr-9">
          <mxGeometry relative="1" as="geometry" />
        </mxCell>
        <mxCell id="pvdILLQp2z0XS6JpvBbr-7" value="Записати&amp;nbsp;&lt;br&gt;в стовбчик&lt;br&gt;кожну 3ю&lt;br&gt;букву" style="whiteSpace=wrap;html=1;" vertex="1" parent="1">
          <mxGeometry x="590" y="330" width="120" height="80" as="geometry" />
        </mxCell>
        <mxCell id="pvdILLQp2z0XS6JpvBbr-15" value="" style="edgeStyle=orthogonalEdgeStyle;rounded=0;orthogonalLoop=1;jettySize=auto;html=1;" edge="1" parent="1" source="pvdILLQp2z0XS6JpvBbr-9" target="pvdILLQp2z0XS6JpvBbr-14">
          <mxGeometry relative="1" as="geometry" />
        </mxCell>
        <mxCell id="pvdILLQp2z0XS6JpvBbr-9" value="Намотати &lt;br&gt;стрічку&lt;br&gt;на палицю" style="shape=parallelogram;perimeter=parallelogramPerimeter;whiteSpace=wrap;html=1;fixedSize=1;" vertex="1" parent="1">
          <mxGeometry x="590" y="440" width="120" height="70" as="geometry" />
        </mxCell>
        <mxCell id="pvdILLQp2z0XS6JpvBbr-17" value="" style="edgeStyle=orthogonalEdgeStyle;rounded=0;orthogonalLoop=1;jettySize=auto;html=1;" edge="1" parent="1" source="pvdILLQp2z0XS6JpvBbr-14" target="pvdILLQp2z0XS6JpvBbr-16">
          <mxGeometry relative="1" as="geometry" />
        </mxCell>
        <mxCell id="pvdILLQp2z0XS6JpvBbr-14" value="Прочитати&amp;nbsp;&lt;br&gt;в рядок" style="whiteSpace=wrap;html=1;" vertex="1" parent="1">
          <mxGeometry x="590" y="540" width="120" height="60" as="geometry" />
        </mxCell>
        <mxCell id="pvdILLQp2z0XS6JpvBbr-20" value="" style="edgeStyle=orthogonalEdgeStyle;rounded=0;orthogonalLoop=1;jettySize=auto;html=1;" edge="1" parent="1" source="pvdILLQp2z0XS6JpvBbr-16" target="pvdILLQp2z0XS6JpvBbr-19">
          <mxGeometry relative="1" as="geometry" />
        </mxCell>
        <mxCell id="pvdILLQp2z0XS6JpvBbr-24" value="" style="edgeStyle=orthogonalEdgeStyle;rounded=0;orthogonalLoop=1;jettySize=auto;html=1;" edge="1" parent="1" source="pvdILLQp2z0XS6JpvBbr-16" target="pvdILLQp2z0XS6JpvBbr-23">
          <mxGeometry relative="1" as="geometry" />
        </mxCell>
        <mxCell id="pvdILLQp2z0XS6JpvBbr-16" value="Подивитися&lt;br&gt;результат" style="rhombus;whiteSpace=wrap;html=1;" vertex="1" parent="1">
          <mxGeometry x="590" y="630" width="120" height="100" as="geometry" />
        </mxCell>
        <mxCell id="pvdILLQp2z0XS6JpvBbr-21" style="edgeStyle=orthogonalEdgeStyle;rounded=0;orthogonalLoop=1;jettySize=auto;html=1;entryX=0;entryY=0.5;entryDx=0;entryDy=0;" edge="1" parent="1" source="pvdILLQp2z0XS6JpvBbr-19" target="pvdILLQp2z0XS6JpvBbr-1">
          <mxGeometry relative="1" as="geometry">
            <Array as="points">
              <mxPoint x="470" y="60" />
            </Array>
          </mxGeometry>
        </mxCell>
        <mxCell id="pvdILLQp2z0XS6JpvBbr-19" value="Перевірити&lt;br&gt;правильність&lt;br&gt;виконання" style="whiteSpace=wrap;html=1;" vertex="1" parent="1">
          <mxGeometry x="410" y="340" width="120" height="60" as="geometry" />
        </mxCell>
        <mxCell id="pvdILLQp2z0XS6JpvBbr-23" value="Кінець" style="ellipse;whiteSpace=wrap;html=1;" vertex="1" parent="1">
          <mxGeometry x="810" y="640" width="120" height="80" as="geometry" />
        </mxCell>
        <mxCell id="pvdILLQp2z0XS6JpvBbr-25" value="Ні" style="text;html=1;align=center;verticalAlign=middle;resizable=0;points=[];autosize=1;" vertex="1" parent="1">
          <mxGeometry x="530" y="640" width="30" height="20" as="geometry" />
        </mxCell>
        <mxCell id="pvdILLQp2z0XS6JpvBbr-26" value="Так" style="text;html=1;align=center;verticalAlign=middle;resizable=0;points=[];autosize=1;" vertex="1" parent="1">
          <mxGeometry x="745" y="640" width="30" height="20" as="geometry" />
        </mxCell>
        <mxCell id="pvdILLQp2z0XS6JpvBbr-27" value="Завдання 2&lt;br&gt;Римський Данило 2П-19" style="text;html=1;align=center;verticalAlign=middle;resizable=0;points=[];autosize=1;" vertex="1" parent="1">
          <mxGeometry x="795" y="165" width="150" height="30" as="geometry" />
        </mxCell>
      </root>
    </mxGraphModel>
  </diagram>
</mxfile>
